<svg id="visual" viewBox="0 0 900 600" width="900" height="600" xmlns="http://www.w3.org/2000/svg" xmlns:xlink="http://www.w3.org/1999/xlink" version="1.1"><rect x="0" y="0" width="900" height="600" fill="#EEEEFC"></rect><path d="M0 219L21.5 226.5C43 234 86 249 128.8 244C171.7 239 214.3 214 257.2 224.3C300 234.7 343 280.3 385.8 318.8C428.7 357.3 471.3 388.7 514.2 399.5C557 410.3 600 400.7 642.8 398.7C685.7 396.7 728.3 402.3 771.2 392.8C814 383.3 857 358.7 878.5 346.3L900 334L900 601L878.5 601C857 601 814 601 771.2 601C728.3 601 685.7 601 642.8 601C600 601 557 601 514.2 601C471.3 601 428.7 601 385.8 601C343 601 300 601 257.2 601C214.3 601 171.7 601 128.8 601C86 601 43 601 21.5 601L0 601Z" fill="#F8F8FF" stroke-linecap="round" stroke-linejoin="miter"></path></svg>